<?xml version="1.0" standalone="no"?>
<!DOCTYPE svg PUBLIC "-//W3C//DTD SVG 20010904//EN"
 "http://www.w3.org/TR/2001/REC-SVG-20010904/DTD/svg10.dtd">
<svg version="1.0" xmlns="http://www.w3.org/2000/svg"
 width="250.000000pt" height="263.000000pt" viewBox="0 0 250.000000 263.000000"
 preserveAspectRatio="xMidYMid meet">
<metadata>
Created by potrace 1.16, written by Peter Selinger 2001-2019
</metadata>
<g transform="translate(0.000000,263.000000) scale(0.100000,-0.100000)"
fill="#000000" stroke="none">
<path d="M390 2486 l0 -136 85 0 85 0 0 50 0 50 358 0 c394 0 472 -7 624 -59
633 -214 946 -913 685 -1527 -109 -258 -352 -497 -612 -601 -194 -78 -184 -77
-732 -81 l-493 -3 0 -85 0 -85 503 3 502 4 105 28 c525 141 895 550 976 1081
19 122 14 332 -11 450 -54 259 -168 469 -360 660 -189 189 -388 299 -655 361
-64 15 -145 18 -567 21 l-493 4 0 -135z"/>
<path d="M10 1100 l0 -1080 85 0 85 0 0 995 0 995 498 0 c542 0 560 -2 686
-59 83 -37 137 -75 205 -142 142 -140 222 -346 208 -534 -21 -264 -167 -480
-400 -591 -137 -64 -168 -68 -507 -69 l-305 0 -3 618 -2 617 -85 0 -85 0 0
-706 0 -706 408 5 c369 4 414 6 487 25 357 92 614 385 657 749 43 369 -156
725 -493 882 -167 78 -132 75 -821 78 l-618 4 0 -1081z"/>
</g>
</svg>
